<svg width="26" height="26" viewBox="0 0 26 26" fill="none" xmlns="http://www.w3.org/2000/svg">
<path fill-rule="evenodd" clip-rule="evenodd" d="M12.1988 16.4454C12.7518 18.308 14.0128 19.5209 15.9484 19.9757C16.9107 20.1923 18.3929 20.4847 21.0697 20.149C23.4035 19.77 24.9961 18.5246 25.6157 16.2397C26.1243 14.3554 26.1243 12.4495 25.6378 10.5653C25.1068 8.54027 23.7906 7.22997 21.7001 6.74266C19.8308 6.29867 17.9283 6.29867 16.048 6.75349C13.9907 7.2408 12.6965 8.50779 12.1545 10.5003C11.6126 12.482 11.6126 14.4746 12.1988 16.4454ZM20.9922 10.078L20.7931 9.92641C20.3618 9.60155 19.7313 9.67735 19.4105 10.0997L18.8685 10.7819C18.5367 11.2151 18.6142 11.8215 19.0455 12.1464C19.2778 12.3304 19.3552 12.6337 19.2225 12.8936C19.1008 13.1426 18.957 13.37 18.7801 13.5866C18.6142 13.8032 18.4261 14.0089 18.2159 14.1822C17.9947 14.3663 17.6629 14.3771 17.4306 14.2039C16.9992 13.879 16.3798 13.9548 16.048 14.3771L15.506 15.0594C15.495 15.0702 15.495 15.0702 15.495 15.0702C15.1632 15.4925 15.2406 16.1098 15.683 16.4347L15.8821 16.5863C16.9218 17.3876 18.8685 17.0627 20.5498 14.9294C21.5673 13.6408 21.8992 12.4279 21.7777 11.4966C21.7222 10.9335 21.4347 10.4245 20.9922 10.078Z" fill="black"/>
<path d="M10.9862 5.70422C11.2345 5.66046 11.4504 5.87924 11.3856 6.13083C11.1805 7.03875 10.9754 7.90292 10.7595 8.77801C10.1334 11.4361 9.51813 14.0942 8.85964 16.7414C8.67613 17.4634 8.38469 18.1635 8.07162 18.8417C7.55348 19.9465 6.60353 20.5262 5.4269 20.5809C3.76449 20.6247 1.64871 20.6575 0.666381 20.6575C0.418101 20.6575 0.223795 20.4606 0.213 20.209L0.137436 18.0541C0.126641 17.8244 0.288563 17.6275 0.50446 17.5837C0.806715 17.529 2.3072 17.5071 3.28952 17.4962C3.69973 17.4962 3.96959 17.0587 3.79688 16.6867C2.84693 14.5865 0.353331 9.01867 0.0186923 7.92479C-0.0568715 7.68413 0.105051 7.43254 0.353331 7.39973C1.16294 7.26846 2.49071 7.12626 3.69973 6.92936C3.93722 6.89654 4.1531 7.04969 4.21788 7.29034C4.67127 9.24837 5.93426 12.8144 5.93426 12.8144C5.93426 12.8144 6.00982 12.8144 6.11777 12.8144C6.20412 12.344 6.64672 8.43892 6.89499 6.91842C6.94897 6.6012 7.06772 6.46993 7.40236 6.4043C8.58979 6.18552 9.76642 5.94487 10.9862 5.70422Z" fill="black"/>
</svg>
